<?xml version="1.0" encoding="UTF-8" standalone="no"?>
<svg
   version="1.1"
   id="Layer_1"
   x="0px"
   y="0px"
   width="100%"
   viewBox="0 0 672 1024"
   enable-background="new 0 0 672 1024"
   xml:space="preserve"
   sodipodi:docname="aluno.svg"
   inkscape:version="1.4.2 (f4327f4, 2025-05-13)"
   xmlns:inkscape="http://www.inkscape.org/namespaces/inkscape"
   xmlns:sodipodi="http://sodipodi.sourceforge.net/DTD/sodipodi-0.dtd"
   xmlns="http://www.w3.org/2000/svg"
   xmlns:svg="http://www.w3.org/2000/svg"><defs
   id="defs5" /><sodipodi:namedview
   id="namedview5"
   pagecolor="#ffffff"
   bordercolor="#000000"
   borderopacity="0.25"
   inkscape:showpageshadow="2"
   inkscape:pageopacity="0.0"
   inkscape:pagecheckerboard="0"
   inkscape:deskcolor="#d1d1d1"
   inkscape:zoom="1.0813762"
   inkscape:cx="305.62907"
   inkscape:cy="558.08515"
   inkscape:window-width="1920"
   inkscape:window-height="1001"
   inkscape:window-x="-9"
   inkscape:window-y="-9"
   inkscape:window-maximized="1"
   inkscape:current-layer="Layer_1"
   showguides="true" />
<path
   fill="#9c27b0"
   opacity="1"
   stroke="none"
   d="m 616.32929,567.4245 c -1.59815,3.79041 -0.83844,6.40918 1.03771,10.01617 3.29346,6.33173 0.71436,13.03382 -2.82354,18.88648 -8.63397,14.28284 -14.51953,29.92151 -22.27533,44.63281 -2.09607,3.97601 -4.20514,7.9494 -6.15106,11.99951 -4.46393,9.29157 -3.99964,18.01618 1.79791,26.93378 3.27258,5.03387 6.9433,7.95666 12.56115,10.2406 8.60138,3.49689 14.38282,10.64197 19.45087,18.65112 7.51947,11.883 4.30353,23.47644 0.35059,34.92768 -2.83283,8.20623 -6.3183,16.38037 -7.34894,24.85095 -1.80237,14.81213 -10.58112,24.97821 -20.61804,34.2641 -8.16236,7.55182 -15.45911,16.11065 -24.8581,22.32263 -9.56585,6.32226 -19.75219,11.97681 -28.33007,19.45666 -11.59449,10.11023 -24.37354,18.91614 -34.69754,30.47028 -6.85916,7.67645 -15.45252,13.26648 -24.32935,17.96222 -6.01111,3.17981 -13.34607,3.74609 -20.19095,5.14728 -18.29184,3.74469 -37.20038,2.99756 -55.32031,7.7359 -6.75711,1.7669 -13.42004,3.88946 -19.92145,6.54248 -8.33057,3.39941 -17.14474,3.9917 -26.04507,3.59253 -13.62903,-0.61121 -26.36237,2.90411 -38.73627,8.23486 -3.20172,1.37933 -6.50616,2.58698 -9.8591,3.53491 -7.90747,2.23548 -23.85205,-3.55273 -28.45511,-10.24316 -0.99112,-1.44055 -2.29654,-2.35889 -3.75351,-3.19367 -12.16113,-6.96801 -25.16264,-10.77929 -39.14427,-12.59393 -15.12598,-1.96319 -29.55862,-5.70135 -42.64589,-15.284 C 176.3813,872.13043 156.30019,858.31763 132.74277,850.0094 119.77567,845.43622 107.71395,837.35644 97.522736,827.67883 84.376709,815.19525 80.754448,798.67364 79.888107,781.2489 c -0.918358,-18.47082 -3.353119,-36.526 -15.466079,-51.69317 -5.82061,-7.28834 -11.673275,-14.45527 -19.193417,-20.19196 -7.908138,-6.03259 -9.640759,-15.19855 -11.078392,-24.35254 -0.387173,-2.46527 -0.664578,-4.96991 -1.323837,-7.36523 -0.94488,-3.43299 -0.639534,-6.49744 1.333042,-9.53736 1.069198,-1.6477 1.885296,-3.57171 2.340828,-5.48419 1.266712,-5.31793 4.431873,-8.81512 9.440449,-10.80988 7.795208,-3.10449 12.861019,-8.6264 14.795208,-16.87835 0.499835,-2.13251 1.287551,-4.08954 2.73682,-5.80951 8.166111,-9.69153 8.824764,-19.63397 2.038234,-30.46619 -1.62461,-2.59314 -2.23019,-5.55145 -3.221736,-8.37207 -1.87307,-5.32831 -4.125222,-10.20251 -7.883736,-14.77576 -5.734844,-6.97802 -4.753449,-15.8836 -1.142594,-23.26629 3.514454,-7.18549 2.533749,-13.11756 -0.894718,-19.33551 -2.027935,-3.67804 -2.434044,-7.49695 -2.451019,-11.55725 -0.05049,-12.07477 -0.206581,-24.14984 -0.431168,-36.22275 -0.06209,-3.33774 -1.486358,-5.99545 -4.493759,-7.86725 -2.872757,-1.78796 -4.263157,-4.85849 -4.547016,-8.03158 -0.768474,-8.59021 -1.27779,-17.20832 -1.68304,-25.82514 -0.497418,-10.57663 3.896793,-20.22726 6.574394,-30.09793 2.86697,-10.56876 6.416336,-20.94208 8.294212,-31.78149 0.46339,-2.67475 1.766609,-5.13233 4.442623,-6.29358 3.753716,-1.629 5.516819,-4.71851 6.433575,-8.39756 2.044693,-8.2055 7.201965,-14.90335 10.735832,-22.38568 3.959557,-8.38366 7.179306,-16.9657 5.735283,-26.32953 -1.010147,-6.55041 -0.232758,-12.93133 0.179077,-19.37518 0.488297,-7.64035 6.446686,-12.22314 10.56575,-17.6958 8.00589,-10.63681 17.001257,-20.43887 26.393927,-29.91362 4.28317,-4.3206 7.70104,-9.63164 9.52457,-15.67502 1.13197,-3.75152 3.11258,-6.92622 5.95839,-9.66356 3.37857,-3.24984 5.69838,-7.19777 7.92918,-11.37558 4.80441,-8.99757 12.13245,-15.72224 21.60143,-19.67946 7.48808,-3.12937 14.70842,-6.4895 21.58522,-10.97911 13.70132,-8.94511 36.62466,-7.69835 49.58734,2.32853 4.39059,3.39617 8.69693,4.0431 13.94119,3.45077 9.79758,-1.10658 18.82245,-3.89281 26.97742,-9.588 3.3294,-2.32516 5.32547,-5.44445 6.93771,-8.923 1.64984,-3.55969 3.51773,-6.82013 7.40579,-8.36133 2.73105,-1.08253 3.3841,-3.25247 3.47861,-6.00743 0.30432,-8.87186 5.71762,-15.30179 14.32553,-17.20456 15.36545,-3.39654 30.49372,-1.06851 45.54971,2.09964 3.87427,0.81522 6.7956,3.4799 9.44285,6.29388 11.94812,12.70076 26.84854,17.34032 43.88491,16.13422 5.41452,-0.38333 10.53803,-2.16641 15.13785,-4.81268 13.34198,-7.67569 26.9559,-11.14006 42.54776,-7.36626 11.08774,2.68364 22.67304,2.90271 33.24069,8.25403 5.51126,2.79085 10.60184,6.23454 16.03928,9.0143 16.83173,8.60489 27.55451,23.14265 38.1908,37.88052 2.13952,2.96452 4.50769,5.76541 6.80175,8.61661 3.05011,3.79088 6.58619,4.30588 10.42035,1.27016 3.2818,-2.59839 5.7688,-2.32703 7.32703,1.75015 0.44452,1.16313 1.12158,1.94484 2.12689,2.63598 15.34039,10.54596 25.65723,24.81099 31.68463,42.37511 2.99744,8.73465 6.95276,16.92618 14.87537,22.55219 3.53692,2.51165 4.69977,6.15463 3.93616,10.59719 -1.7193,10.00309 -2.88471,20.10376 -6.10688,29.80799 -0.50042,1.50699 -0.74749,3.50967 -0.1748,4.89615 4.55487,11.02847 2.53448,22.751 3.59247,34.10974 1.54535,16.5921 -0.43787,33.17743 -2.34479,49.70245 -0.59332,5.14127 -0.0134,10.35071 1.08075,15.37229 1.02887,4.72241 1.67886,6.31204 0.95371,11.21136 -0.25769,1.74137 0.36677,6.12207 -1.05997,7.81805 -3.91443,4.65339 -2.81173,11.40937 1.18855,17.54586 2.23907,3.43478 -1.74163,8.70933 -2.4779,13.45903 -0.40045,2.58352 -0.83746,4.63629 -3.22632,6.29745 -2.85284,1.9838 -4.57574,5.11319 -3.93994,8.67261 1.1405,6.38528 -1.4646,11.77072 -4.01074,17.18307 -4.79975,10.20258 -3.60706,21.09223 -3.77088,31.81672 -0.0182,1.18951 0.70874,2.90777 1.64868,3.51226 7.24665,4.6604 5.15619,12.33344 6.40211,19.26563"
   id="path1"
   sodipodi:nodetypes="cssscsssssssssscsssssscsssssssssssssssssssssssssssssssssssssssssssssssssssssssscsssscssssssssssssc"
   style="fill:#8e24aa;fill-opacity:1" />


<path
   fill="#9c27b0"
   opacity="1.000000"
   stroke="none"
   d=" M331.928741,563.365356   C319.553986,562.667297 308.115540,559.973572 297.189301,555.201477   C294.259338,553.921814 291.585632,552.254761 290.523468,548.884888   C289.421967,545.390076 290.084991,542.185730 292.466461,539.586365   C294.857178,536.976990 297.933868,537.487915 300.789581,538.868958   C310.017212,543.331604 319.684875,546.256653 329.898712,547.176880   C346.687744,548.689697 363.157654,547.661987 378.792572,540.556641   C380.156586,539.936707 381.533142,539.344238 382.906769,538.745605   C386.516541,537.172668 390.011139,537.284973 392.147552,540.866516   C394.243469,544.380249 394.210144,548.225891 391.337952,551.543457   C388.605316,554.699829 384.721802,555.933838 380.987152,557.327454   C365.275116,563.190735 349.014160,564.734680 331.928741,563.365356  z"
   id="path4"
   style="fill:#8e24aa;fill-opacity:1" />
<path
   fill="#9c27b0"
   opacity="1.000000"
   stroke="none"
   d=" M319.178406,506.305664   C321.760284,506.374817 323.793579,507.096069 325.763580,508.007782   C336.376862,512.919434 346.905853,512.844360 357.523407,507.855896   C363.053009,505.257904 367.735748,505.995941 370.270325,509.313110   C373.881104,514.038818 372.501160,519.999268 366.807617,523.234802   C359.528290,527.371460 351.420868,528.576965 343.254456,528.671082   C334.082062,528.776855 324.983612,527.776611 316.725128,523.164246   C313.007965,521.088196 311.196869,517.901428 311.786591,513.645325   C312.346161,509.606293 314.576904,506.969971 319.178406,506.305664  z"
   id="path5"
   style="fill:#8e24aa;fill-opacity:1" />

<path
   fill="#ffffff"
   opacity="1.000000"
   stroke="none"
   d="m 266.09611,484.25509 c -7.91287,-0.57453 -17.8993,-3.22061 -21.49726,-5.69608 -4.00372,-2.75463 -9.8591,-13.18514 -12.14726,-21.63855 -1.12925,-4.17189 -1.21649,-5.18732 -1.23972,-14.42875 -0.0268,-10.65053 0.22793,-12.27767 2.3709,-15.14701 2.6326,-3.52492 6.41529,-4.13665 28.35198,-4.585 14.53368,-0.29704 22.65784,0.11568 33.77314,1.71575 7.49353,1.07871 10.78214,1.98709 12.85038,3.54956 3.61012,2.72729 4.24248,5.88049 3.11156,15.51561 -2.58612,22.03301 -7.28587,32.54947 -16.5612,37.05841 -5.78479,2.8121 -18.52474,4.41755 -29.01252,3.65606 z"
   id="path24" />
<path
   fill="#ffffff"
   opacity="1.000000"
   stroke="none"
   d="m 331.98438,624.3703 c -18.20012,-2.07464 -30.36257,-5.52701 -44.74477,-12.701 -12.32311,-6.1469 -21.64819,-12.9231 -32.04585,-23.28655 -10.12402,-10.09071 -16.61537,-18.90501 -22.84964,-31.02645 -6.27826,-12.20698 -9.87447,-24.12129 -12.68954,-42.04072 -2.01699,-12.83917 -2.72232,-16.03448 -3.99348,-18.09126 -1.1554,-1.86947 -3.95848,-3.8667 -7.07727,-5.04264 -5.89394,-2.22229 -10.94686,-7.01287 -14.35302,-13.60781 -6.62694,-12.83098 -9.76365,-29.47437 -8.10968,-43.0299 0.86211,-7.06555 2.66001,-10.48801 6.61787,-12.59766 1.57112,-0.83745 2.67715,-1.02421 6.08173,-1.02692 3.75053,-0.003 4.40548,0.13191 6.63414,1.36636 2.60989,1.44563 4.66209,3.94227 5.52525,6.72187 0.65987,2.12495 1.31371,6.8838 2.1917,15.95189 0.9301,9.60636 1.43194,12.8936 2.81093,18.41262 5.31617,21.27643 17.00757,32.64695 37.1669,36.14682 5.83101,1.01233 23.14432,1.45067 29.54772,0.7481 10.40731,-1.14188 17.90041,-3.27745 24.08763,-6.86509 4.225,-2.44986 10.37067,-8.76016 12.91839,-13.26446 5.31482,-9.39643 8.75281,-23.28613 9.73731,-39.33935 0.24953,-4.06889 0.64102,-8.0452 0.86996,-8.83625 1.66333,-5.74712 5.53479,-7.98579 12.72555,-7.35853 8.33067,0.72669 10.01903,2.73154 10.91259,12.95816 1.19545,13.68185 3.40347,25.81178 6.09544,33.48574 5.32184,15.17099 15.67369,24.41796 31.10884,27.78856 7.48942,1.63548 22.98231,2.28802 32.21672,1.35692 21.21181,-2.13876 32.00207,-8.63191 39.6231,-23.84363 4.33929,-8.66131 6.47574,-18.67126 8.14972,-38.18418 0.78673,-9.17059 1.54419,-11.39556 4.90954,-14.4213 2.7408,-2.46421 5.33326,-3.26183 9.60774,-2.95599 5.75361,0.41167 9.56097,3.44775 11.04695,8.80912 0.92958,3.35387 1.31694,18.76376 0.60728,24.15827 -1.01744,7.73404 -3.09709,14.64142 -6.40053,21.25877 -4.26102,8.53552 -7.64835,12.39916 -13.0503,14.88539 -5.93161,2.73 -6.4089,3.00645 -8.14501,4.71775 -2.44017,2.40529 -3.37095,4.89188 -4.12862,11.02958 -2.64598,21.43469 -6.40395,34.96655 -13.88453,49.99609 -6.01827,12.09156 -13.1184,21.8176 -23.51928,32.21763 -3.32123,3.32095 -7.80718,7.44819 -9.96877,9.17164 -18.51549,14.76247 -40.81695,23.71864 -65.1281,26.15519 -4.39681,0.44066 -17.8236,0.55723 -21.10461,0.18322 z m 21.038,-60.74446 c 10.0462,-0.87339 18.54627,-2.70237 27.64766,-5.94902 5.96243,-2.12691 7.42188,-2.85071 9.59443,-4.75824 3.43556,-3.01646 4.38345,-7.40258 2.45894,-11.37808 -2.17421,-4.49132 -5.38047,-4.85707 -13.31642,-1.51901 -12.95636,5.44975 -22.73566,7.42945 -36.69611,7.42868 -15.7746,-8.7e-4 -27.09414,-2.21541 -39.28098,-7.68489 -6.08409,-2.73055 -8.47227,-2.79008 -10.98845,-0.27391 -2.78143,2.78144 -3.41901,7.18016 -1.56579,10.80262 1.68771,3.29894 8.19932,6.61066 18.91347,9.61914 12.14507,3.41028 29.5346,4.90362 43.23325,3.71271 z m -3.0473,-35.14975 c 2.26572,-0.25957 5.49078,-0.80522 7.16679,-1.21256 3.85889,-0.93787 10.49974,-3.98466 12.23736,-5.61442 2.80772,-2.63345 3.76317,-6.76781 2.34722,-10.15665 -2.33512,-5.58874 -7.27405,-6.66944 -15.4378,-3.378 -10.73821,4.3294 -18.91301,4.3294 -29.65122,0 -5.3329,-2.1501 -8.325,-2.37613 -11.06546,-0.83591 -4.6554,2.61648 -5.46688,10.17036 -1.51689,14.12035 3.03932,3.03932 11.51155,6.15578 19.14097,7.04089 4.89213,0.56755 12.00737,0.58294 16.77903,0.0363 z"
   id="path25" />
<path
   fill="#ffffff"
   opacity="1.000000"
   stroke="none"
   d="m 403.9581,484.05083 c -16.48216,-1.29718 -22.91066,-5.82673 -27.51861,-19.38974 -3.08267,-9.07352 -4.61603,-17.58919 -4.66015,-25.88071 -0.0284,-5.3386 0.0618,-5.97194 1.15191,-8.09029 1.64024,-3.1873 4.42921,-4.55006 11.76374,-5.74806 11.30192,-1.84603 15.33847,-2.10142 33.05972,-2.09167 18.08782,0.01 26.11368,0.53527 28.79187,1.88456 6.1846,3.11584 8.02522,10.69781 5.93828,24.46121 -3.02503,19.95005 -8.99411,29.53061 -20.41631,32.76877 -6.45315,1.82945 -19.2777,2.78109 -28.11045,2.08593 z"
   id="path26" />





<path
   d="m 470.16217,407.58792 c 0.41508,0.4157 0.83016,0.83139 1.25781,1.25969 -4.60435,5.23135 -9.53523,7.42561 -16.2539,7.85842 -16.03072,0.50414 -30.5269,-3.41768 -45.7649,-8.25599 -51.78826,-16.39052 -100.92154,-11.06651 -152.33447,3.59605 -2.54607,0.72594 -5.09472,1.43883 -7.64673,2.14057 -0.77013,0.21293 -1.54027,0.42585 -2.33374,0.64523 -5.24619,1.35858 -10.21051,1.8659 -15.60376,1.82409 -0.78198,-0.003 -1.56395,-0.007 -2.36963,-0.0112 -7.86253,-0.15768 -14.44517,-1.38927 -20.69287,-6.72935 63.54806,-64.7938 176.27794,-67.18158 261.74219,-2.3275 z"
   fill="#fdfafd"
   id="path5-4"
   style="stroke-width:1.03335"
   sodipodi:nodetypes="scccccccccss" /><path
   d="m 351.29048,255.69633 c 2.81434,2.04039 5.1437,4.25985 7.5,6.8125 2.70875,2.70875 4.45225,2.39867 8.25,2.75 16.33587,1.87175 32.0425,7.01219 46.75,14.25 0.97969,0.47051 1.95938,0.94102 2.96875,1.42578 27.88919,14.22509 49.09646,41.04926 59.09375,70.46094 1.27355,4.22923 2.47199,8.47466 3.625,12.73828 0.21487,0.78802 0.42974,1.57604 0.65112,2.38794 2.09527,8.02502 2.79844,15.77339 2.72388,24.04956 -0.009,1.31098 -0.018,2.62195 -0.0273,3.97266 -0.0174,1.46759 -0.0174,1.46759 -0.0352,2.96484 -3.18356,-1.35893 -5.62146,-3.26203 -8.26123,-5.47754 -13.80324,-11.50739 -30.0334,-20.03232 -46.73877,-26.52246 -0.71849,-0.28682 -1.43698,-0.57363 -2.17725,-0.86914 -26.39198,-10.41386 -54.21619,-14.50609 -82.43896,-14.44653 -3.11527,0.003 -6.22958,-0.0204 -9.34473,-0.0457 -12.9469,-0.041 -25.31536,0.97268 -38.03906,3.36132 -1.55316,0.28219 -1.55316,0.28219 -3.1377,0.57007 -31.29323,6.102 -60.73603,20.3858 -85.58935,40.19409 -2.43457,1.92492 -4.29888,3.24448 -7.27295,4.23584 0.92383,-12.21044 1.9434,-24.11153 5,-36 0.22559,-0.93586 0.45117,-1.87172 0.68359,-2.83594 4.80382,-18.94387 13.89029,-35.24092 26.31641,-50.16406 0.75281,-0.90621 1.50562,-1.81242 2.28125,-2.74609 19.10476,-22.09829 49.20334,-36.35612 77.71875,-41.25391 2.03991,-0.11871 4.08207,-0.20779 6.125,-0.25 3.20696,-0.17978 4.46283,-0.39525 6.92187,-2.51172 1.83907,-2.12073 1.83907,-2.12073 3.32032,-4.32812 5.23169,-6.12033 16.20877,-5.07189 23.13281,-2.72266 z"
   fill="#fdfcfd"
   id="path4-5" /><path
   d="m 447.13619,631.14241 c 0.48575,0.13113 0.97148,0.26227 1.47193,0.39737 3.74715,0.99427 7.47754,1.90407 11.34558,2.68015 20.97659,4.46257 42.54502,11.57597 58.8771,21.27202 0.68562,0.40037 1.37122,0.80073 2.07764,1.21325 13.59114,8.33318 22.53049,20.34031 23.96766,32.40685 -0.30776,2.36478 -2.02008,3.10956 -4.62745,4.66065 -14.13499,7.6832 -30.41433,13.21909 -47.26125,17.99371 -0.61524,0.17543 -1.23046,0.35086 -1.86433,0.5316 -33.10511,9.31789 -69.14064,13.0434 -104.84391,15.16032 -0.86737,0.0537 -1.73472,0.10752 -2.62838,0.1629 -9.22527,0.50634 -18.44496,0.43839 -27.69594,0.41202 -1.6738,-0.002 -3.34765,-0.006 -5.02147,-0.007 -4.05761,-0.006 -8.11514,-0.0152 -12.17272,-0.0264 -0.56016,-7.9804 -0.9591,-15.96662 -1.073,-23.95525 -0.014,-0.81805 -0.0338,-1.63607 -0.06,-2.45401 -0.25705,-8.4414 2.95234,-14.65709 11.91831,-20.90323 4.11647,-2.58642 8.76279,-4.52584 13.5567,-6.53126 6.05776,-2.54422 11.72419,-5.44798 17.34076,-8.38283 12.97661,3.2593 25.6473,7.25883 37.86305,11.5766 10.85038,4.02104 10.85038,4.02104 22.99398,5.19752 2.56107,-0.34181 2.56107,-0.34181 3.23002,-1.48446 0.18712,-0.40085 0.37425,-0.8017 0.56704,-1.2147 0.20607,-0.44126 0.41212,-0.88253 0.62442,-1.33716 2.66855,-6.31973 4.49957,-12.67063 4.74877,-19.23101 0.0388,-0.69551 0.0388,-0.69551 0.0787,-1.40506 0.37055,-7.08953 -0.27694,-13.62101 -2.68375,-20.54545 -0.7169,-2.11618 -0.87253,-4.02463 -0.72947,-6.18673 z"
   fill="#fdfcfd"
   id="path4-51"
   style="stroke-width:0.671634" /><path
   d="m 242.05632,632.76572 c -0.0758,0.36323 -0.15152,0.72646 -0.22959,1.10069 -2.40309,11.82628 -4.60178,24.45001 -0.60407,36.23525 0.12076,0.36245 0.24153,0.7249 0.36594,1.09832 0.4003,1.18099 0.81925,2.35829 1.24927,3.53486 0.13138,0.36148 0.26274,0.72297 0.39811,1.09541 0.83336,2.12786 2.01724,3.78867 3.82228,5.63453 v 1.0822 c 13.4966,-0.21859 25.67256,-5.49911 37.2541,-9.5369 5.23575,-1.82048 10.52242,-3.55887 15.89161,-5.20809 0.7057,-0.22713 1.4114,-0.45426 2.13849,-0.68827 4.95691,-1.48774 4.95691,-1.48774 7.86867,-0.79342 0.61791,0.35504 1.23584,0.71007 1.87247,1.07586 0.6824,0.34109 1.36479,0.68216 2.06786,1.03359 0.74472,0.38433 1.48945,0.76866 2.25673,1.16463 6.45937,3.19034 13.53448,5.6125 20.68515,8.08269 -0.3224,0.32156 -0.64479,0.64311 -0.97694,0.9744 -5.53087,5.71364 -8.22204,11.06041 -8.36447,17.83506 -0.0166,0.70387 -0.0333,1.40775 -0.0504,2.13295 -0.0142,0.75736 -0.0284,1.51472 -0.0423,2.27208 -0.0172,0.78314 -0.0347,1.56628 -0.0525,2.34943 -0.0458,2.05036 -0.0871,4.10076 -0.12744,6.15117 -0.042,2.09664 -0.0883,4.19324 -0.13433,6.28984 -0.0895,4.10578 -0.17401,8.21159 -0.25563,12.31744 -9.78561,0.0653 -19.43062,0.0145 -29.17803,-0.60874 -0.54771,-0.0341 -1.09542,-0.0682 -1.65973,-0.10334 -26.25803,-1.65787 -52.42429,-4.84463 -77.53776,-10.10994 -0.58218,-0.12032 -1.16437,-0.24064 -1.76418,-0.36461 -49.85775,-10.41898 -62.56576,-16.58892 -70.76408,-25.06712 -2.47865,-9.60888 3.62435,-18.97897 11.93825,-26.73587 10.55755,-9.43935 24.05103,-15.94822 39.74856,-21.42209 0.86617,-0.3097 1.73232,-0.61939 2.62473,-0.93848 28.84802,-9.88353 28.84802,-9.88353 41.55917,-9.88353 z"
   fill="#fdfbfd"
   id="path6"
   sodipodi:nodetypes="ccccccccccccccccccccccccccccccccc"
   style="stroke-width:0.671634" /><path
   d="m 282.96829,623.64844 c 3.89466,0.36957 7.20594,1.32674 10.78546,2.3335 24.49952,6.69013 51.58133,8.09879 77.58229,4.70081 0.57938,-0.0753 4.91416,-1.12996 5.51109,-1.20758 3.01342,-0.47674 18.34281,-4.53305 28.65293,-7.24202 -5.68875,19.8046 -28.95512,35.2226 -53.33813,46.32665 -2.48796,1.09524 -4.98927,2.17641 -7.50293,3.2466 -0.53625,-0.22321 -1.0725,-0.4464 -1.62499,-0.67637 -5.06168,-2.10102 -5.06168,-2.10102 -10.18627,-4.13646 -20.92024,-8.12074 -36.59645,-18.87754 -45.60695,-33.77441 -0.23863,-0.39414 -0.47727,-0.78828 -0.72312,-1.19435 -1.59409,-2.74636 -2.676,-5.49848 -3.54938,-8.37637 z"
   fill="#fdfafd"
   id="path8"
   sodipodi:nodetypes="cccccccccccc"
   style="stroke-width:0.671634" /><path
   d="m 419.62548,619.7793 c 2.59275,0.56096 4.86113,1.29753 7.13822,2.26586 0.46531,0.19739 0.93063,0.3948 1.41004,0.59817 4.08206,2.59026 5.58594,5.95423 6.92652,9.44601 0.1743,0.44794 0.3486,0.89587 0.52816,1.35738 4.50382,11.93816 5.62516,23.51575 1.50388,35.57274 -0.17731,0.54406 -0.35463,1.08812 -0.53731,1.64866 -0.35796,1.07645 -0.73973,2.14955 -1.12999,3.22125 -3.77638,-0.33414 -6.84727,-1.32342 -10.18628,-2.45187 -1.19253,-0.39507 -2.38551,-0.7896 -3.57887,-1.18365 -0.61562,-0.20402 -1.23124,-0.40805 -1.86553,-0.61826 -3.04808,-1.001 -6.12152,-1.96741 -9.19671,-2.93272 -0.59952,-0.1885 -1.19903,-0.377 -1.81672,-0.57122 -1.81688,-0.57098 -3.63429,-1.14129 -5.45173,-1.71154 -1.26464,-0.39733 -2.52924,-0.7947 -3.7938,-1.19212 -3.04219,-0.95595 -6.08491,-1.91125 -9.12789,-2.86614 0,-1.0822 0,-1.0822 1.66729,-2.1644 0.38258,-0.24204 0.76515,-0.48408 1.15931,-0.73345 15.13698,-10.03954 22.33199,-24.17124 26.35141,-37.6847 z"
   fill="#fdf8fd"
   id="path9"
   style="stroke-width:0.671634" /><path
   d="m 267.89972,620.3204 c 2.63615,1.39293 3.24089,2.81944 4.15201,4.91007 0.29606,0.65876 0.59212,1.31751 0.89715,1.99624 0.15348,0.34695 0.30695,0.69391 0.46507,1.0514 2.82564,6.34068 5.96262,12.30939 11.15893,18.01512 0.44469,0.4894 0.44469,0.4894 0.8984,0.98868 4.13831,4.49928 8.82869,8.56987 14.10744,12.53884 -1.65009,1.07102 -2.6423,1.42632 -4.74467,2.00587 -0.96074,0.2704 -0.96074,0.2704 -1.94088,0.54626 -1.04939,0.29354 -1.04939,0.29354 -2.11996,0.59302 -9.68251,2.76059 -19.01029,5.93502 -28.34926,9.14996 -1.00343,0.3422 -1.00343,0.3422 -2.02714,0.69131 -0.5873,0.20895 -1.17458,0.41789 -1.77968,0.63318 -1.55496,0.44902 -1.55496,0.44902 -4.05593,0.44902 -0.54707,-1.23865 -1.08371,-2.47861 -1.61523,-3.72007 -0.22808,-0.51267 -0.22808,-0.51267 -0.4608,-1.0357 -5.70173,-13.45752 -2.92121,-30.60551 5.41064,-43.4022 1.97822,-1.87028 3.86721,-3.0875 6.87769,-4.22734 0.88336,-0.34004 0.88336,-0.34004 1.78453,-0.68695 0.44277,-0.16391 0.88552,-0.32783 1.34169,-0.49671 z"
   fill="#fdf9fd"
   id="path10"
   style="stroke-width:0.671634" /></svg>
