<?xml version="1.0" encoding="UTF-8" standalone="no"?>
<svg
   version="1.1"
   id="Layer_1"
   x="0px"
   y="0px"
   width="100%"
   viewBox="0 0 672 1024"
   enable-background="new 0 0 672 1024"
   xml:space="preserve"
   sodipodi:docname="aluno.svg"
   inkscape:version="1.4.2 (f4327f4, 2025-05-13)"
   xmlns:inkscape="http://www.inkscape.org/namespaces/inkscape"
   xmlns:sodipodi="http://sodipodi.sourceforge.net/DTD/sodipodi-0.dtd"
   xmlns="http://www.w3.org/2000/svg"
   xmlns:svg="http://www.w3.org/2000/svg"><defs
   id="defs5" /><sodipodi:namedview
   id="namedview5"
   pagecolor="#ffffff"
   bordercolor="#000000"
   borderopacity="0.25"
   inkscape:showpageshadow="2"
   inkscape:pageopacity="0.0"
   inkscape:pagecheckerboard="0"
   inkscape:deskcolor="#d1d1d1"
   inkscape:zoom="1.0813762"
   inkscape:cx="305.62907"
   inkscape:cy="485.03009"
   inkscape:window-width="1920"
   inkscape:window-height="1001"
   inkscape:window-x="-9"
   inkscape:window-y="-9"
   inkscape:window-maximized="1"
   inkscape:current-layer="Layer_1"
   showguides="true" />
<path
   fill="#9c27b0"
   opacity="1"
   stroke="none"
   d="m 616.32929,567.4245 c -1.59815,3.79041 -0.83844,6.40918 1.03771,10.01617 3.29346,6.33173 0.71436,13.03382 -2.82354,18.88648 -8.63397,14.28284 -14.51953,29.92151 -22.27533,44.63281 -2.09607,3.97601 -4.20514,7.9494 -6.15106,11.99951 -4.46393,9.29157 -3.99964,18.01618 1.79791,26.93378 3.27258,5.03387 6.9433,7.95666 12.56115,10.2406 8.60138,3.49689 14.38282,10.64197 19.45087,18.65112 7.51947,11.883 4.30353,23.47644 0.35059,34.92768 -2.83283,8.20623 -6.3183,16.38037 -7.34894,24.85095 -1.80237,14.81213 -10.58112,24.97821 -20.61804,34.2641 -8.16236,7.55182 -15.45911,16.11065 -24.8581,22.32263 -9.56585,6.32226 -19.75219,11.97681 -28.33007,19.45666 -11.59449,10.11023 -24.37354,18.91614 -34.69754,30.47028 -6.85916,7.67645 -15.45252,13.26648 -24.32935,17.96222 -6.01111,3.17981 -13.34607,3.74609 -20.19095,5.14728 -18.29184,3.74469 -37.20038,2.99756 -55.32031,7.7359 -6.75711,1.7669 -13.42004,3.88946 -19.92145,6.54248 -8.33057,3.39941 -17.14474,3.9917 -26.04507,3.59253 -13.62903,-0.61121 -26.36237,2.90411 -38.73627,8.23486 -3.20172,1.37933 -6.50616,2.58698 -9.8591,3.53491 -7.90747,2.23548 -23.85205,-3.55273 -28.45511,-10.24316 -0.99112,-1.44055 -2.29654,-2.35889 -3.75351,-3.19367 -12.16113,-6.96801 -25.16264,-10.77929 -39.14427,-12.59393 -15.12598,-1.96319 -29.55862,-5.70135 -42.64589,-15.284 C 176.3813,872.13043 156.30019,858.31763 132.74277,850.0094 119.77567,845.43622 107.71395,837.35644 97.522736,827.67883 84.376709,815.19525 80.754448,798.67364 79.888107,781.2489 c -0.918358,-18.47082 -3.353119,-36.526 -15.466079,-51.69317 -5.82061,-7.28834 -11.673275,-14.45527 -19.193417,-20.19196 -7.908138,-6.03259 -9.640759,-15.19855 -11.078392,-24.35254 -0.387173,-2.46527 -0.664578,-4.96991 -1.323837,-7.36523 -0.94488,-3.43299 -0.639534,-6.49744 1.333042,-9.53736 1.069198,-1.6477 1.885296,-3.57171 2.340828,-5.48419 1.266712,-5.31793 4.431873,-8.81512 9.440449,-10.80988 7.795208,-3.10449 12.861019,-8.6264 14.795208,-16.87835 0.499835,-2.13251 1.287551,-4.08954 2.73682,-5.80951 8.166111,-9.69153 8.824764,-19.63397 2.038234,-30.46619 -1.62461,-2.59314 -2.23019,-5.55145 -3.221736,-8.37207 -1.87307,-5.32831 -4.125222,-10.20251 -7.883736,-14.77576 -5.734844,-6.97802 -4.753449,-15.8836 -1.142594,-23.26629 3.514454,-7.18549 2.533749,-13.11756 -0.894718,-19.33551 -2.027935,-3.67804 -2.434044,-7.49695 -2.451019,-11.55725 -0.05049,-12.07477 -0.206581,-24.14984 -0.431168,-36.22275 -0.06209,-3.33774 -1.486358,-5.99545 -4.493759,-7.86725 -2.872757,-1.78796 -4.263157,-4.85849 -4.547016,-8.03158 -0.768474,-8.59021 -1.27779,-17.20832 -1.68304,-25.82514 -0.497418,-10.57663 3.896793,-20.22726 6.574394,-30.09793 2.86697,-10.56876 6.416336,-20.94208 8.294212,-31.78149 0.46339,-2.67475 1.766609,-5.13233 4.442623,-6.29358 3.753716,-1.629 5.516819,-4.71851 6.433575,-8.39756 2.044693,-8.2055 7.201965,-14.90335 10.735832,-22.38568 3.959557,-8.38366 7.179306,-16.9657 5.735283,-26.32953 -1.010147,-6.55041 -0.232758,-12.93133 0.179077,-19.37518 0.488297,-7.64035 6.446686,-12.22314 10.56575,-17.6958 8.00589,-10.63681 17.001257,-20.43887 26.393927,-29.91362 4.28317,-4.3206 7.70104,-9.63164 9.52457,-15.67502 1.13197,-3.75152 3.11258,-6.92622 5.95839,-9.66356 3.37857,-3.24984 5.69838,-7.19777 7.92918,-11.37558 4.80441,-8.99757 12.13245,-15.72224 21.60143,-19.67946 7.48808,-3.12937 14.70842,-6.4895 21.58522,-10.97911 13.70132,-8.94511 36.62466,-7.69835 49.58734,2.32853 4.39059,3.39617 8.69693,4.0431 13.94119,3.45077 9.79758,-1.10658 18.82245,-3.89281 26.97742,-9.588 3.3294,-2.32516 5.32547,-5.44445 6.93771,-8.923 1.64984,-3.55969 3.51773,-6.82013 7.40579,-8.36133 2.73105,-1.08253 3.3841,-3.25247 3.47861,-6.00743 0.30432,-8.87186 5.71762,-15.30179 14.32553,-17.20456 15.36545,-3.39654 30.49372,-1.06851 45.54971,2.09964 3.87427,0.81522 6.7956,3.4799 9.44285,6.29388 11.94812,12.70076 26.84854,17.34032 43.88491,16.13422 5.41452,-0.38333 10.53803,-2.16641 15.13785,-4.81268 13.34198,-7.67569 26.9559,-11.14006 42.54776,-7.36626 11.08774,2.68364 22.67304,2.90271 33.24069,8.25403 5.51126,2.79085 10.60184,6.23454 16.03928,9.0143 16.83173,8.60489 27.55451,23.14265 38.1908,37.88052 2.13952,2.96452 4.50769,5.76541 6.80175,8.61661 3.05011,3.79088 6.58619,4.30588 10.42035,1.27016 3.2818,-2.59839 5.7688,-2.32703 7.32703,1.75015 0.44452,1.16313 1.12158,1.94484 2.12689,2.63598 15.34039,10.54596 25.65723,24.81099 31.68463,42.37511 2.99744,8.73465 6.95276,16.92618 14.87537,22.55219 3.53692,2.51165 4.69977,6.15463 3.93616,10.59719 -1.7193,10.00309 -2.88471,20.10376 -6.10688,29.80799 -0.50042,1.50699 -0.74749,3.50967 -0.1748,4.89615 4.55487,11.02847 2.53448,22.751 3.59247,34.10974 1.54535,16.5921 -0.43787,33.17743 -2.34479,49.70245 -0.59332,5.14127 -0.0134,10.35071 1.08075,15.37229 1.02887,4.72241 1.67886,6.31204 0.95371,11.21136 -0.25769,1.74137 0.36677,6.12207 -1.05997,7.81805 -3.91443,4.65339 -2.81173,11.40937 1.18855,17.54586 2.23907,3.43478 -1.74163,8.70933 -2.4779,13.45903 -0.40045,2.58352 -0.83746,4.63629 -3.22632,6.29745 -2.85284,1.9838 -4.57574,5.11319 -3.93994,8.67261 1.1405,6.38528 -1.4646,11.77072 -4.01074,17.18307 -4.79975,10.20258 -3.60706,21.09223 -3.77088,31.81672 -0.0182,1.18951 0.70874,2.90777 1.64868,3.51226 7.24665,4.6604 5.15619,12.33344 6.40211,19.26563"
   id="path1"
   sodipodi:nodetypes="cssscsssssssssscsssssscsssssssssssssssssssssssssssssssssssssssssssssssssssssssscsssscssssssssssssc"
   style="fill:#8e24aa;fill-opacity:1" />


<path
   fill="#9c27b0"
   opacity="1.000000"
   stroke="none"
   d=" M331.928741,563.365356   C319.553986,562.667297 308.115540,559.973572 297.189301,555.201477   C294.259338,553.921814 291.585632,552.254761 290.523468,548.884888   C289.421967,545.390076 290.084991,542.185730 292.466461,539.586365   C294.857178,536.976990 297.933868,537.487915 300.789581,538.868958   C310.017212,543.331604 319.684875,546.256653 329.898712,547.176880   C346.687744,548.689697 363.157654,547.661987 378.792572,540.556641   C380.156586,539.936707 381.533142,539.344238 382.906769,538.745605   C386.516541,537.172668 390.011139,537.284973 392.147552,540.866516   C394.243469,544.380249 394.210144,548.225891 391.337952,551.543457   C388.605316,554.699829 384.721802,555.933838 380.987152,557.327454   C365.275116,563.190735 349.014160,564.734680 331.928741,563.365356  z"
   id="path4"
   style="fill:#8e24aa;fill-opacity:1" />
<path
   fill="#9c27b0"
   opacity="1.000000"
   stroke="none"
   d=" M319.178406,506.305664   C321.760284,506.374817 323.793579,507.096069 325.763580,508.007782   C336.376862,512.919434 346.905853,512.844360 357.523407,507.855896   C363.053009,505.257904 367.735748,505.995941 370.270325,509.313110   C373.881104,514.038818 372.501160,519.999268 366.807617,523.234802   C359.528290,527.371460 351.420868,528.576965 343.254456,528.671082   C334.082062,528.776855 324.983612,527.776611 316.725128,523.164246   C313.007965,521.088196 311.196869,517.901428 311.786591,513.645325   C312.346161,509.606293 314.576904,506.969971 319.178406,506.305664  z"
   id="path5"
   style="fill:#8e24aa;fill-opacity:1" />

<path
   fill="#ffffff"
   opacity="1.000000"
   stroke="none"
   d="m 266.09611,484.25509 c -7.91287,-0.57453 -17.8993,-3.22061 -21.49726,-5.69608 -4.00372,-2.75463 -9.8591,-13.18514 -12.14726,-21.63855 -1.12925,-4.17189 -1.21649,-5.18732 -1.23972,-14.42875 -0.0268,-10.65053 0.22793,-12.27767 2.3709,-15.14701 2.6326,-3.52492 6.41529,-4.13665 28.35198,-4.585 14.53368,-0.29704 22.65784,0.11568 33.77314,1.71575 7.49353,1.07871 10.78214,1.98709 12.85038,3.54956 3.61012,2.72729 4.24248,5.88049 3.11156,15.51561 -2.58612,22.03301 -7.28587,32.54947 -16.5612,37.05841 -5.78479,2.8121 -18.52474,4.41755 -29.01252,3.65606 z"
   id="path24" />
<path
   fill="#ffffff"
   opacity="1.000000"
   stroke="none"
   d="m 331.98438,624.3703 c -18.20012,-2.07464 -30.36257,-5.52701 -44.74477,-12.701 -12.32311,-6.1469 -21.64819,-12.9231 -32.04585,-23.28655 -10.12402,-10.09071 -16.61537,-18.90501 -22.84964,-31.02645 -6.27826,-12.20698 -9.87447,-24.12129 -12.68954,-42.04072 -2.01699,-12.83917 -2.72232,-16.03448 -3.99348,-18.09126 -1.1554,-1.86947 -3.95848,-3.8667 -7.07727,-5.04264 -5.89394,-2.22229 -10.94686,-7.01287 -14.35302,-13.60781 -6.62694,-12.83098 -9.76365,-29.47437 -8.10968,-43.0299 0.86211,-7.06555 2.66001,-10.48801 6.61787,-12.59766 1.57112,-0.83745 2.67715,-1.02421 6.08173,-1.02692 3.75053,-0.003 4.40548,0.13191 6.63414,1.36636 2.60989,1.44563 4.66209,3.94227 5.52525,6.72187 0.65987,2.12495 1.31371,6.8838 2.1917,15.95189 0.9301,9.60636 1.43194,12.8936 2.81093,18.41262 5.31617,21.27643 17.00757,32.64695 37.1669,36.14682 5.83101,1.01233 23.14432,1.45067 29.54772,0.7481 10.40731,-1.14188 17.90041,-3.27745 24.08763,-6.86509 4.225,-2.44986 10.37067,-8.76016 12.91839,-13.26446 5.31482,-9.39643 8.75281,-23.28613 9.73731,-39.33935 0.24953,-4.06889 0.64102,-8.0452 0.86996,-8.83625 1.66333,-5.74712 5.53479,-7.98579 12.72555,-7.35853 8.33067,0.72669 10.01903,2.73154 10.91259,12.95816 1.19545,13.68185 3.40347,25.81178 6.09544,33.48574 5.32184,15.17099 15.67369,24.41796 31.10884,27.78856 7.48942,1.63548 22.98231,2.28802 32.21672,1.35692 21.21181,-2.13876 32.00207,-8.63191 39.6231,-23.84363 4.33929,-8.66131 6.47574,-18.67126 8.14972,-38.18418 0.78673,-9.17059 1.54419,-11.39556 4.90954,-14.4213 2.7408,-2.46421 5.33326,-3.26183 9.60774,-2.95599 5.75361,0.41167 9.56097,3.44775 11.04695,8.80912 0.92958,3.35387 1.31694,18.76376 0.60728,24.15827 -1.01744,7.73404 -3.09709,14.64142 -6.40053,21.25877 -4.26102,8.53552 -7.64835,12.39916 -13.0503,14.88539 -5.93161,2.73 -6.4089,3.00645 -8.14501,4.71775 -2.44017,2.40529 -3.37095,4.89188 -4.12862,11.02958 -2.64598,21.43469 -6.40395,34.96655 -13.88453,49.99609 -6.01827,12.09156 -13.1184,21.8176 -23.51928,32.21763 -3.32123,3.32095 -7.80718,7.44819 -9.96877,9.17164 -18.51549,14.76247 -40.81695,23.71864 -65.1281,26.15519 -4.39681,0.44066 -17.8236,0.55723 -21.10461,0.18322 z m 21.038,-60.74446 c 10.0462,-0.87339 18.54627,-2.70237 27.64766,-5.94902 5.96243,-2.12691 7.42188,-2.85071 9.59443,-4.75824 3.43556,-3.01646 4.38345,-7.40258 2.45894,-11.37808 -2.17421,-4.49132 -5.38047,-4.85707 -13.31642,-1.51901 -12.95636,5.44975 -22.73566,7.42945 -36.69611,7.42868 -15.7746,-8.7e-4 -27.09414,-2.21541 -39.28098,-7.68489 -6.08409,-2.73055 -8.47227,-2.79008 -10.98845,-0.27391 -2.78143,2.78144 -3.41901,7.18016 -1.56579,10.80262 1.68771,3.29894 8.19932,6.61066 18.91347,9.61914 12.14507,3.41028 29.5346,4.90362 43.23325,3.71271 z m -3.0473,-35.14975 c 2.26572,-0.25957 5.49078,-0.80522 7.16679,-1.21256 3.85889,-0.93787 10.49974,-3.98466 12.23736,-5.61442 2.80772,-2.63345 3.76317,-6.76781 2.34722,-10.15665 -2.33512,-5.58874 -7.27405,-6.66944 -15.4378,-3.378 -10.73821,4.3294 -18.91301,4.3294 -29.65122,0 -5.3329,-2.1501 -8.325,-2.37613 -11.06546,-0.83591 -4.6554,2.61648 -5.46688,10.17036 -1.51689,14.12035 3.03932,3.03932 11.51155,6.15578 19.14097,7.04089 4.89213,0.56755 12.00737,0.58294 16.77903,0.0363 z"
   id="path25" />
<path
   fill="#ffffff"
   opacity="1.000000"
   stroke="none"
   d="m 403.9581,484.05083 c -16.48216,-1.29718 -22.91066,-5.82673 -27.51861,-19.38974 -3.08267,-9.07352 -4.61603,-17.58919 -4.66015,-25.88071 -0.0284,-5.3386 0.0618,-5.97194 1.15191,-8.09029 1.64024,-3.1873 4.42921,-4.55006 11.76374,-5.74806 11.30192,-1.84603 15.33847,-2.10142 33.05972,-2.09167 18.08782,0.01 26.11368,0.53527 28.79187,1.88456 6.1846,3.11584 8.02522,10.69781 5.93828,24.46121 -3.02503,19.95005 -8.99411,29.53061 -20.41631,32.76877 -6.45315,1.82945 -19.2777,2.78109 -28.11045,2.08593 z"
   id="path26" />





<path
   d="m 470.16217,407.58792 c 0.41508,0.4157 0.83016,0.83139 1.25781,1.25969 -4.60435,5.23135 -9.53523,7.42561 -16.2539,7.85842 -16.03072,0.50414 -30.5269,-3.41768 -45.7649,-8.25599 -51.78826,-16.39052 -100.92154,-11.06651 -152.33447,3.59605 -2.54607,0.72594 -5.09472,1.43883 -7.64673,2.14057 -0.77013,0.21293 -1.54027,0.42585 -2.33374,0.64523 -5.24619,1.35858 -10.21051,1.8659 -15.60376,1.82409 -0.78198,-0.003 -1.56395,-0.007 -2.36963,-0.0112 -7.86253,-0.15768 -14.44517,-1.38927 -20.69287,-6.72935 63.54806,-64.7938 176.27794,-67.18158 261.74219,-2.3275 z"
   fill="#fdfafd"
   id="path5-4"
   style="stroke-width:1.03335"
   sodipodi:nodetypes="scccccccccss" /><path
   d="m 351.29048,255.69633 c 2.81434,2.04039 5.1437,4.25985 7.5,6.8125 2.70875,2.70875 4.45225,2.39867 8.25,2.75 16.33587,1.87175 32.0425,7.01219 46.75,14.25 0.97969,0.47051 1.95938,0.94102 2.96875,1.42578 27.88919,14.22509 49.09646,41.04926 59.09375,70.46094 1.27355,4.22923 2.47199,8.47466 3.625,12.73828 0.21487,0.78802 0.42974,1.57604 0.65112,2.38794 2.09527,8.02502 2.79844,15.77339 2.72388,24.04956 -0.009,1.31098 -0.018,2.62195 -0.0273,3.97266 -0.0174,1.46759 -0.0174,1.46759 -0.0352,2.96484 -3.18356,-1.35893 -5.62146,-3.26203 -8.26123,-5.47754 -13.80324,-11.50739 -30.0334,-20.03232 -46.73877,-26.52246 -0.71849,-0.28682 -1.43698,-0.57363 -2.17725,-0.86914 -26.39198,-10.41386 -54.21619,-14.50609 -82.43896,-14.44653 -3.11527,0.003 -6.22958,-0.0204 -9.34473,-0.0457 -12.9469,-0.041 -25.31536,0.97268 -38.03906,3.36132 -1.55316,0.28219 -1.55316,0.28219 -3.1377,0.57007 -31.29323,6.102 -60.73603,20.3858 -85.58935,40.19409 -2.43457,1.92492 -4.29888,3.24448 -7.27295,4.23584 0.92383,-12.21044 1.9434,-24.11153 5,-36 0.22559,-0.93586 0.45117,-1.87172 0.68359,-2.83594 4.80382,-18.94387 13.89029,-35.24092 26.31641,-50.16406 0.75281,-0.90621 1.50562,-1.81242 2.28125,-2.74609 19.10476,-22.09829 49.20334,-36.35612 77.71875,-41.25391 2.03991,-0.11871 4.08207,-0.20779 6.125,-0.25 3.20696,-0.17978 4.46283,-0.39525 6.92187,-2.51172 1.83907,-2.12073 1.83907,-2.12073 3.32032,-4.32812 5.23169,-6.12033 16.20877,-5.07189 23.13281,-2.72266 z"
   fill="#fdfcfd"
   id="path4-5" /><path
   d="m 453.21424,634.97871 c 0.5015,0.16473 1.00298,0.32947 1.51966,0.49919 3.86866,1.24903 7.72001,2.39194 11.71349,3.36687 21.6568,5.60601 43.92463,14.54207 60.7863,26.72251 0.70786,0.50296 1.4157,1.00591 2.14502,1.52412 14.03186,10.46838 23.26109,25.55208 24.74486,40.7104 -0.31773,2.9707 -2.08558,3.90632 -4.7775,5.85484 -14.59335,9.65185 -31.40058,16.60619 -48.7938,22.60421 -0.63519,0.22038 -1.27036,0.44075 -1.92479,0.6678 -34.17861,11.7054 -71.38267,16.38549 -108.24369,19.04483 -0.89549,0.0675 -1.79097,0.13506 -2.71361,0.20463 -9.52442,0.63608 -19.04308,0.55072 -28.59403,0.5176 -1.72809,-0.003 -3.45621,-0.007 -5.18431,-0.009 -4.18918,-0.007 -8.37829,-0.0191 -12.56744,-0.0332 -0.57833,-10.0252 -0.99021,-20.05772 -1.10779,-30.09326 -0.0144,-1.02766 -0.0349,-2.05528 -0.0619,-3.08279 -0.26539,-10.60433 3.04807,-18.41266 12.30478,-26.25923 4.24997,-3.24914 9.04695,-5.68549 13.99631,-8.20475 6.25419,-3.19612 12.10437,-6.84391 17.90307,-10.53075 13.39741,4.09442 26.47897,9.11875 39.09084,14.54285 11.20223,5.05134 11.20223,5.05134 23.73961,6.52927 2.64412,-0.42939 2.64412,-0.42939 3.33476,-1.86482 0.19319,-0.50356 0.38638,-1.00712 0.58543,-1.52594 0.21275,-0.55432 0.42548,-1.10866 0.64467,-1.67978 2.75508,-7.93902 4.64547,-15.9172 4.90276,-24.15853 0.0401,-0.87372 0.0401,-0.87372 0.0812,-1.76508 0.38257,-8.90607 -0.28592,-17.11109 -2.77077,-25.80977 -0.74015,-2.65841 -0.90082,-5.05586 -0.75312,-7.77194 z"
   fill="#fdfcfd"
   id="path4-51"
   style="stroke-width:0.764886" /><path
   d="m 241.48423,637.01795 c -0.0783,0.4563 -0.15644,0.9126 -0.23704,1.38273 -2.48101,14.8565 -4.75101,30.71479 -0.62366,45.51974 0.12468,0.45531 0.24936,0.91063 0.37781,1.37973 0.41328,1.4836 0.84581,2.96255 1.28978,4.44059 0.13563,0.45411 0.27126,0.90822 0.41102,1.37609 0.86038,2.67308 2.08265,4.75944 3.94622,7.07825 v 1.35949 c 13.93425,-0.27459 26.50504,-6.90813 38.46215,-11.98052 5.40552,-2.28694 10.86363,-4.47075 16.40692,-6.54255 0.72859,-0.28532 1.45717,-0.57065 2.20784,-0.86462 5.11764,-1.86894 5.11764,-1.86894 8.12383,-0.99672 0.63794,0.44601 1.27591,0.89201 1.93318,1.35153 0.70453,0.42848 1.40905,0.85695 2.13492,1.29842 0.76887,0.48281 1.53775,0.96561 2.32991,1.46305 6.66882,4.00779 13.97336,7.05058 21.35591,10.1537 -0.33285,0.40395 -0.6657,0.80789 -1.00862,1.22407 -5.71022,7.17763 -8.48866,13.89439 -8.6357,22.4049 -0.0171,0.88422 -0.0344,1.76845 -0.052,2.67947 -0.0146,0.95142 -0.0293,1.90284 -0.0437,2.85425 -0.0178,0.98381 -0.0358,1.96761 -0.0542,2.95142 -0.0473,2.57572 -0.0899,5.15149 -0.13157,7.72728 -0.0433,2.63385 -0.0911,5.26766 -0.13868,7.90147 -0.0924,5.15779 -0.17965,10.31563 -0.26392,15.47351 -10.10293,0.082 -20.0607,0.0182 -30.12418,-0.76471 -0.56547,-0.0428 -1.13095,-0.0857 -1.71356,-0.12982 -27.1095,-2.08266 -54.12425,-6.08596 -80.05208,-12.70039 -0.60106,-0.15115 -1.20213,-0.3023 -1.82139,-0.45803 -51.47449,-13.08862 -64.59459,-20.83947 -73.05875,-31.49003 -2.55903,-12.07094 3.74187,-23.84191 12.32537,-33.58635 10.8999,-11.85798 24.83093,-20.0346 41.03749,-26.91103 0.89425,-0.38905 1.78849,-0.7781 2.70984,-1.17894 29.78348,-12.41598 29.78348,-12.41598 42.90681,-12.41598 z"
   fill="#fdfbfd"
   id="path6"
   sodipodi:nodetypes="ccccccccccccccccccccccccccccccccc"
   style="stroke-width:0.764886" /><path
   d="m 283.72285,625.56457 c 4.02095,0.46427 7.4396,1.66669 11.1352,2.93141 25.29397,8.40433 53.25396,10.17393 80.09806,5.90529 0.59817,-0.0946 5.07351,-1.41949 5.6898,-1.517 3.11113,-0.59889 18.93761,-5.69454 29.58206,-9.09763 -5.87322,24.8791 -29.89405,44.24762 -55.06774,58.19684 -2.56863,1.37588 -5.15105,2.73407 -7.74622,4.07848 -0.55364,-0.2804 -1.10727,-0.56079 -1.67768,-0.84968 -5.22582,-2.63936 -5.22582,-2.63936 -10.51658,-5.19634 -21.59863,-10.2015 -37.78317,-23.71449 -47.08585,-42.42836 -0.24638,-0.49513 -0.49275,-0.99026 -0.74658,-1.50038 -1.64578,-3.45005 -2.76277,-6.90734 -3.66447,-10.52263 z"
   fill="#fdfafd"
   id="path8"
   sodipodi:nodetypes="cccccccccccc"
   style="stroke-width:0.764886" /><path
   d="m 424.81144,620.70405 c 2.67682,0.70469 5.01876,1.62999 7.36968,2.84644 0.4804,0.24797 0.96081,0.49595 1.45577,0.75143 4.21443,3.25396 5.76708,7.47988 7.15113,11.86635 0.17995,0.56271 0.3599,1.12541 0.54529,1.70518 4.64986,14.99705 5.80756,29.54115 1.55265,44.68748 -0.18307,0.68346 -0.36613,1.36692 -0.55474,2.07109 -0.36957,1.35226 -0.76372,2.70032 -1.16664,4.04662 -3.89884,-0.41976 -7.0693,-1.66252 -10.51658,-3.0801 -1.23121,-0.4963 -2.46287,-0.99192 -3.69492,-1.48694 -0.63559,-0.2563 -1.27118,-0.5126 -1.92603,-0.77667 -3.14692,-1.25749 -6.32002,-2.47152 -9.49493,-3.68417 -0.61896,-0.2368 -1.23791,-0.4736 -1.87563,-0.71758 -1.87581,-0.71729 -3.75214,-1.43372 -5.62852,-2.15009 -1.30565,-0.49913 -2.61126,-0.99832 -3.91682,-1.49757 -3.14085,-1.2009 -6.28222,-2.40097 -9.42389,-3.60053 0,-1.35949 0,-1.35949 1.72137,-2.71898 0.39498,-0.30406 0.78996,-0.60811 1.1969,-0.92138 15.62783,-12.61195 23.05615,-30.36459 27.20591,-47.34058 z"
   fill="#fdf8fd"
   id="path9"
   style="stroke-width:0.764886" /><path
   d="m 268.16565,621.3838 c 2.72163,1.74983 3.34598,3.54186 4.28665,6.16816 0.30566,0.82755 0.61132,1.6551 0.92624,2.50773 0.15845,0.43586 0.31691,0.87172 0.48015,1.3208 2.91727,7.96534 6.15598,15.46341 11.52079,22.63111 0.45911,0.61479 0.45911,0.61479 0.92752,1.242 4.27251,5.65213 9.11498,10.76572 14.56491,15.75165 -1.7036,1.34544 -2.72798,1.79178 -4.89853,2.51983 -0.99189,0.33968 -0.99189,0.33968 -2.00381,0.68622 -1.08342,0.36876 -1.08342,0.36876 -2.18871,0.74497 -9.99649,3.46793 -19.62674,7.45574 -29.26854,11.49444 -1.03597,0.42988 -1.03597,0.42988 -2.09288,0.86844 -0.60635,0.26249 -1.21267,0.52497 -1.83739,0.79542 -1.60538,0.56407 -1.60538,0.56407 -4.18745,0.56407 -0.56481,-1.55602 -1.11885,-3.1137 -1.66761,-4.67325 -0.23547,-0.64404 -0.23547,-0.64404 -0.47573,-1.30108 -5.88663,-16.90571 -3.01594,-38.4475 5.58609,-54.52306 2.04236,-2.3495 3.9926,-3.87861 7.10071,-5.31051 0.912,-0.42717 0.912,-0.42717 1.8424,-0.86296 0.45712,-0.20591 0.91423,-0.41183 1.38519,-0.62398 z"
   fill="#fdf9fd"
   id="path10"
   style="stroke-width:0.764886" /></svg>
