<?xml version="1.0" encoding="UTF-8" standalone="no"?>
<svg
   version="1.1"
   id="Layer_1"
   x="0px"
   y="0px"
   width="100%"
   viewBox="0 0 672 1024"
   enable-background="new 0 0 672 1024"
   xml:space="preserve"
   sodipodi:docname="professor_dark.svg"
   inkscape:version="1.4.2 (f4327f4, 2025-05-13)"
   xmlns:inkscape="http://www.inkscape.org/namespaces/inkscape"
   xmlns:sodipodi="http://sodipodi.sourceforge.net/DTD/sodipodi-0.dtd"
   xmlns="http://www.w3.org/2000/svg"
   xmlns:svg="http://www.w3.org/2000/svg"><defs
   id="defs5" /><sodipodi:namedview
   id="namedview5"
   pagecolor="#ffffff"
   bordercolor="#000000"
   borderopacity="0.25"
   inkscape:showpageshadow="2"
   inkscape:pageopacity="0.0"
   inkscape:pagecheckerboard="0"
   inkscape:deskcolor="#d1d1d1"
   inkscape:zoom="1.0813762"
   inkscape:cx="237.19775"
   inkscape:cy="694.94779"
   inkscape:window-width="1920"
   inkscape:window-height="1001"
   inkscape:window-x="-9"
   inkscape:window-y="-9"
   inkscape:window-maximized="1"
   inkscape:current-layer="Layer_1" />
<path
   fill="#9c27b0"
   opacity="1"
   stroke="none"
   d="m 616.32929,567.4245 c -1.59815,3.79041 -0.83844,6.40918 1.03771,10.01617 3.29346,6.33173 0.71436,13.03382 -2.82354,18.88648 -8.63397,14.28284 -14.51953,29.92151 -22.27533,44.63281 -2.09607,3.97601 -4.20514,7.9494 -6.15106,11.99951 -4.46393,9.29157 -3.99964,18.01618 1.79791,26.93378 3.27258,5.03387 6.9433,7.95666 12.56115,10.2406 8.60138,3.49689 14.38282,10.64197 19.45087,18.65112 7.51947,11.883 4.30353,23.47644 0.35059,34.92768 -2.83283,8.20623 -6.3183,16.38037 -7.34894,24.85095 -1.80237,14.81213 -10.58112,24.97821 -20.61804,34.2641 -8.16236,7.55182 -15.45911,16.11065 -24.8581,22.32263 -9.56585,6.32226 -19.75219,11.97681 -28.33007,19.45666 -11.59449,10.11023 -24.37354,18.91614 -34.69754,30.47028 -6.85916,7.67645 -15.45252,13.26648 -24.32935,17.96222 -6.01111,3.17981 -13.34607,3.74609 -20.19095,5.14728 -18.29184,3.74469 -37.20038,2.99756 -55.32031,7.7359 -6.75711,1.7669 -13.42004,3.88946 -19.92145,6.54248 -8.33057,3.39941 -17.14474,3.9917 -26.04507,3.59253 -13.62903,-0.61121 -26.36237,2.90411 -38.73627,8.23486 -3.20172,1.37933 -6.50616,2.58698 -9.8591,3.53491 -7.90747,2.23548 -23.85205,-3.55273 -28.45511,-10.24316 -0.99112,-1.44055 -2.29654,-2.35889 -3.75351,-3.19367 -12.16113,-6.96801 -25.16264,-10.77929 -39.14427,-12.59393 -15.12598,-1.96319 -29.55862,-5.70135 -42.64589,-15.284 C 176.3813,872.13043 156.30019,858.31763 132.74277,850.0094 119.77567,845.43622 107.71395,837.35644 97.522736,827.67883 84.376709,815.19525 80.754448,798.67364 79.888107,781.2489 c -0.918358,-18.47082 -3.353119,-36.526 -15.466079,-51.69317 -5.82061,-7.28834 -11.673275,-14.45527 -19.193417,-20.19196 -7.908138,-6.03259 -9.640759,-15.19855 -11.078392,-24.35254 -0.387173,-2.46527 -0.664578,-4.96991 -1.323837,-7.36523 -0.94488,-3.43299 -0.639534,-6.49744 1.333042,-9.53736 1.069198,-1.6477 1.885296,-3.57171 2.340828,-5.48419 1.266712,-5.31793 4.431873,-8.81512 9.440449,-10.80988 7.795208,-3.10449 12.861019,-8.6264 14.795208,-16.87835 0.499835,-2.13251 1.287551,-4.08954 2.73682,-5.80951 8.166111,-9.69153 8.824764,-19.63397 2.038234,-30.46619 -1.62461,-2.59314 -2.23019,-5.55145 -3.221736,-8.37207 -1.87307,-5.32831 -4.125222,-10.20251 -7.883736,-14.77576 -5.734844,-6.97802 -4.753449,-15.8836 -1.142594,-23.26629 3.514454,-7.18549 2.533749,-13.11756 -0.894718,-19.33551 -2.027935,-3.67804 -2.434044,-7.49695 -2.451019,-11.55725 -0.05049,-12.07477 -0.206581,-24.14984 -0.431168,-36.22275 -0.06209,-3.33774 -1.486358,-5.99545 -4.493759,-7.86725 -2.872757,-1.78796 -4.263157,-4.85849 -4.547016,-8.03158 -0.768474,-8.59021 -1.27779,-17.20832 -1.68304,-25.82514 -0.497418,-10.57663 3.896793,-20.22726 6.574394,-30.09793 2.86697,-10.56876 6.416336,-20.94208 8.294212,-31.78149 0.46339,-2.67475 1.766609,-5.13233 4.442623,-6.29358 3.753716,-1.629 5.516819,-4.71851 6.433575,-8.39756 2.044693,-8.2055 7.201965,-14.90335 10.735832,-22.38568 3.959557,-8.38366 7.179306,-16.9657 5.735283,-26.32953 -1.010147,-6.55041 -0.232758,-12.93133 0.179077,-19.37518 0.488297,-7.64035 6.446686,-12.22314 10.56575,-17.6958 8.00589,-10.63681 17.001257,-20.43887 26.393927,-29.91362 4.28317,-4.3206 7.70104,-9.63164 9.52457,-15.67502 1.13197,-3.75152 3.11258,-6.92622 5.95839,-9.66356 3.37857,-3.24984 5.69838,-7.19777 7.92918,-11.37558 4.80441,-8.99757 12.13245,-15.72224 21.60143,-19.67946 7.48808,-3.12937 14.70842,-6.4895 21.58522,-10.97911 13.70132,-8.94511 36.62466,-7.69835 49.58734,2.32853 4.39059,3.39617 8.69693,4.0431 13.94119,3.45077 9.79758,-1.10658 18.82245,-3.89281 26.97742,-9.588 3.3294,-2.32516 5.32547,-5.44445 6.93771,-8.923 1.64984,-3.55969 3.51773,-6.82013 7.40579,-8.36133 2.73105,-1.08253 3.3841,-3.25247 3.47861,-6.00743 0.30432,-8.87186 5.71762,-15.30179 14.32553,-17.20456 15.36545,-3.39654 30.49372,-1.06851 45.54971,2.09964 3.87427,0.81522 6.7956,3.4799 9.44285,6.29388 11.94812,12.70076 26.84854,17.34032 43.88491,16.13422 5.41452,-0.38333 10.53803,-2.16641 15.13785,-4.81268 13.34198,-7.67569 26.9559,-11.14006 42.54776,-7.36626 11.08774,2.68364 22.67304,2.90271 33.24069,8.25403 5.51126,2.79085 10.60184,6.23454 16.03928,9.0143 16.83173,8.60489 27.55451,23.14265 38.1908,37.88052 2.13952,2.96452 4.50769,5.76541 6.80175,8.61661 3.05011,3.79088 6.58619,4.30588 10.42035,1.27016 3.2818,-2.59839 5.7688,-2.32703 7.32703,1.75015 0.44452,1.16313 1.12158,1.94484 2.12689,2.63598 15.34039,10.54596 25.65723,24.81099 31.68463,42.37511 2.99744,8.73465 6.95276,16.92618 14.87537,22.55219 3.53692,2.51165 4.69977,6.15463 3.93616,10.59719 -1.7193,10.00309 -2.88471,20.10376 -6.10688,29.80799 -0.50042,1.50699 -0.74749,3.50967 -0.1748,4.89615 4.55487,11.02847 2.53448,22.751 3.59247,34.10974 1.54535,16.5921 -0.43787,33.17743 -2.34479,49.70245 -0.59332,5.14127 -0.0134,10.35071 1.08075,15.37229 1.02887,4.72241 1.67886,6.31204 0.95371,11.21136 -0.25769,1.74137 0.36677,6.12207 -1.05997,7.81805 -3.91443,4.65339 -2.81173,11.40937 1.18855,17.54586 2.23907,3.43478 -1.74163,8.70933 -2.4779,13.45903 -0.40045,2.58352 -0.83746,4.63629 -3.22632,6.29745 -2.85284,1.9838 -4.57574,5.11319 -3.93994,8.67261 1.1405,6.38528 -1.4646,11.77072 -4.01074,17.18307 -4.79975,10.20258 -3.60706,21.09223 -3.77088,31.81672 -0.0182,1.18951 0.70874,2.90777 1.64868,3.51226 7.24665,4.6604 5.15619,12.33344 6.40211,19.26563"
   id="path1"
   sodipodi:nodetypes="cssscsssssssssscsssssscsssssssssssssssssssssssssssssssssssssssssssssssssssssssscsssscssssssssssssc" />
<path
   fill="#9c27b0"
   opacity="1.000000"
   stroke="none"
   d=" M299.591766,386.107056   C301.896454,386.787170 303.861206,387.199493 305.708923,387.914368   C310.918793,389.929962 313.224243,393.690094 312.200073,398.235504   C311.299866,402.230469 307.426514,404.627167 302.020935,404.281372   C299.382111,404.112579 296.757385,403.616730 294.144653,403.162994   C277.353333,400.247040 260.492462,399.358856 243.513306,401.206848   C239.570328,401.635986 235.825882,401.164825 233.300369,397.507568   C230.014923,392.749756 231.353378,387.494293 236.547394,385.018829   C240.064819,383.342438 243.926865,382.969360 247.708664,382.714172   C265.003937,381.547272 282.207001,382.184570 299.591766,386.107056  z"
   id="path2" />
<path
   fill="#9c27b0"
   opacity="1.000000"
   stroke="none"
   d=" M409.801025,399.026062   C400.538818,399.790833 391.972900,401.875275 383.366669,403.730072   C377.511719,404.991943 373.409515,403.170135 371.949280,398.624969   C370.430115,393.896332 372.445953,389.951813 378.122711,387.774017   C389.555359,383.388062 401.615021,381.662476 413.709839,380.817383   C422.989441,380.168976 432.352264,380.581787 441.674683,380.731995   C446.275635,380.806091 450.296906,382.238281 451.438812,387.473969   C452.794800,393.691254 448.620392,398.334869 441.078156,398.125183   C432.937714,397.898834 424.820496,397.480255 416.697205,398.305206   C414.548340,398.523438 412.400116,398.747894 409.801025,399.026062  z"
   id="path3" />
<path
   fill="#9c27b0"
   opacity="1.000000"
   stroke="none"
   d=" M331.928741,563.365356   C319.553986,562.667297 308.115540,559.973572 297.189301,555.201477   C294.259338,553.921814 291.585632,552.254761 290.523468,548.884888   C289.421967,545.390076 290.084991,542.185730 292.466461,539.586365   C294.857178,536.976990 297.933868,537.487915 300.789581,538.868958   C310.017212,543.331604 319.684875,546.256653 329.898712,547.176880   C346.687744,548.689697 363.157654,547.661987 378.792572,540.556641   C380.156586,539.936707 381.533142,539.344238 382.906769,538.745605   C386.516541,537.172668 390.011139,537.284973 392.147552,540.866516   C394.243469,544.380249 394.210144,548.225891 391.337952,551.543457   C388.605316,554.699829 384.721802,555.933838 380.987152,557.327454   C365.275116,563.190735 349.014160,564.734680 331.928741,563.365356  z"
   id="path4" />
<path
   fill="#9c27b0"
   opacity="1.000000"
   stroke="none"
   d=" M319.178406,506.305664   C321.760284,506.374817 323.793579,507.096069 325.763580,508.007782   C336.376862,512.919434 346.905853,512.844360 357.523407,507.855896   C363.053009,505.257904 367.735748,505.995941 370.270325,509.313110   C373.881104,514.038818 372.501160,519.999268 366.807617,523.234802   C359.528290,527.371460 351.420868,528.576965 343.254456,528.671082   C334.082062,528.776855 324.983612,527.776611 316.725128,523.164246   C313.007965,521.088196 311.196869,517.901428 311.786591,513.645325   C312.346161,509.606293 314.576904,506.969971 319.178406,506.305664  z"
   id="path5" />
<path
   fill="#ffffff"
   opacity="1.000000"
   stroke="none"
   d="m 313.21584,409.2028 c -15.47215,-3.88627 -41.00858,-5.22187 -68.37486,-3.5761 -13.10341,0.78802 -25.88415,1.50415 -28.40164,1.59141 l -4.57727,0.15864 0.18882,-21.57854 c 0.16318,-18.64742 0.65186,-23.35498 3.59765,-34.65645 10.89871,-41.81277 38.2074,-72.49028 76.71949,-86.18367 19.226,-6.83601 34.53598,-9.08051 56.53406,-8.28808 21.52537,0.77539 33.15815,3.39913 49.94171,11.26417 44.23849,20.73085 68.45927,56.73675 74.0437,110.07121 1.54412,14.74711 1.16333,26.66272 -0.91748,28.71062 -0.66852,0.65793 -12.0273,0.24319 -26.64045,-0.97271 -21.3572,-1.77705 -28.86166,-1.87577 -46.42657,-0.61067 -12.117,0.8727 -24.7252,2.56923 -29.90099,4.02337 -8.79313,2.47046 -9.07242,2.47117 -15.98777,0.0406 -8.97598,-3.15481 -16.71396,-3.09963 -23.92079,0.17054 -3.13551,1.42277 -5.78378,2.52217 -5.88505,2.44308 -0.10128,-0.0791 -4.59793,-1.25242 -9.99256,-2.60744 z m -5.95413,-5.06926 c 4.56769,-1.73663 6.83754,-6.85556 4.91295,-11.07958 -2.14324,-4.70391 -7.67313,-6.99549 -22.57772,-9.35614 -15.50812,-2.45624 -48.37103,-2.11804 -53.18383,0.54733 -5.9075,3.27164 -6.95901,10.45762 -2.22323,15.19341 1.69932,1.69931 5.92469,2.06729 24.51911,2.13521 12.35629,0.0451 26.87977,0.85381 32.27441,1.79704 12.92169,2.2593 12.40562,2.23512 16.27831,0.76273 z m 87.27858,-2.10298 c 5.26185,-1.1422 19.33875,-2.47027 31.282,-2.95127 15.34398,-0.61795 22.34645,-1.39859 23.86718,-2.66068 2.92447,-2.42708 2.83869,-10.92394 -0.13647,-13.51921 -5.28244,-4.60793 -43.78736,-3.57232 -63.10089,1.69715 -14.32813,3.90926 -18.76843,9.30749 -13.65765,16.60415 2.50537,3.57693 8.10611,3.79066 21.74583,0.82986 z"
   id="path23" />
<path
   fill="#ffffff"
   opacity="1.000000"
   stroke="none"
   d="m 266.09611,484.25509 c -7.91287,-0.57453 -17.8993,-3.22061 -21.49726,-5.69608 -4.00372,-2.75463 -9.8591,-13.18514 -12.14726,-21.63855 -1.12925,-4.17189 -1.21649,-5.18732 -1.23972,-14.42875 -0.0268,-10.65053 0.22793,-12.27767 2.3709,-15.14701 2.6326,-3.52492 6.41529,-4.13665 28.35198,-4.585 14.53368,-0.29704 22.65784,0.11568 33.77314,1.71575 7.49353,1.07871 10.78214,1.98709 12.85038,3.54956 3.61012,2.72729 4.24248,5.88049 3.11156,15.51561 -2.58612,22.03301 -7.28587,32.54947 -16.5612,37.05841 -5.78479,2.8121 -18.52474,4.41755 -29.01252,3.65606 z"
   id="path24" />
<path
   fill="#ffffff"
   opacity="1.000000"
   stroke="none"
   d="m 331.98438,624.3703 c -18.20012,-2.07464 -30.36257,-5.52701 -44.74477,-12.701 -12.32311,-6.1469 -21.64819,-12.9231 -32.04585,-23.28655 -10.12402,-10.09071 -16.61537,-18.90501 -22.84964,-31.02645 -6.27826,-12.20698 -9.87447,-24.12129 -12.68954,-42.04072 -2.01699,-12.83917 -2.72232,-16.03448 -3.99348,-18.09126 -1.1554,-1.86947 -3.95848,-3.8667 -7.07727,-5.04264 -5.89394,-2.22229 -10.94686,-7.01287 -14.35302,-13.60781 -6.62694,-12.83098 -9.76365,-29.47437 -8.10968,-43.0299 0.86211,-7.06555 2.66001,-10.48801 6.61787,-12.59766 1.57112,-0.83745 2.67715,-1.02421 6.08173,-1.02692 3.75053,-0.003 4.40548,0.13191 6.63414,1.36636 2.60989,1.44563 4.66209,3.94227 5.52525,6.72187 0.65987,2.12495 1.31371,6.8838 2.1917,15.95189 0.9301,9.60636 1.43194,12.8936 2.81093,18.41262 5.31617,21.27643 17.00757,32.64695 37.1669,36.14682 5.83101,1.01233 23.14432,1.45067 29.54772,0.7481 10.40731,-1.14188 17.90041,-3.27745 24.08763,-6.86509 4.225,-2.44986 10.37067,-8.76016 12.91839,-13.26446 5.31482,-9.39643 8.75281,-23.28613 9.73731,-39.33935 0.24953,-4.06889 0.64102,-8.0452 0.86996,-8.83625 1.66333,-5.74712 5.53479,-7.98579 12.72555,-7.35853 8.33067,0.72669 10.01903,2.73154 10.91259,12.95816 1.19545,13.68185 3.40347,25.81178 6.09544,33.48574 5.32184,15.17099 15.67369,24.41796 31.10884,27.78856 7.48942,1.63548 22.98231,2.28802 32.21672,1.35692 21.21181,-2.13876 32.00207,-8.63191 39.6231,-23.84363 4.33929,-8.66131 6.47574,-18.67126 8.14972,-38.18418 0.78673,-9.17059 1.54419,-11.39556 4.90954,-14.4213 2.7408,-2.46421 5.33326,-3.26183 9.60774,-2.95599 5.75361,0.41167 9.56097,3.44775 11.04695,8.80912 0.92958,3.35387 1.31694,18.76376 0.60728,24.15827 -1.01744,7.73404 -3.09709,14.64142 -6.40053,21.25877 -4.26102,8.53552 -7.64835,12.39916 -13.0503,14.88539 -5.93161,2.73 -6.4089,3.00645 -8.14501,4.71775 -2.44017,2.40529 -3.37095,4.89188 -4.12862,11.02958 -2.64598,21.43469 -6.40395,34.96655 -13.88453,49.99609 -6.01827,12.09156 -13.1184,21.8176 -23.51928,32.21763 -3.32123,3.32095 -7.80718,7.44819 -9.96877,9.17164 -18.51549,14.76247 -40.81695,23.71864 -65.1281,26.15519 -4.39681,0.44066 -17.8236,0.55723 -21.10461,0.18322 z m 21.038,-60.74446 c 10.0462,-0.87339 18.54627,-2.70237 27.64766,-5.94902 5.96243,-2.12691 7.42188,-2.85071 9.59443,-4.75824 3.43556,-3.01646 4.38345,-7.40258 2.45894,-11.37808 -2.17421,-4.49132 -5.38047,-4.85707 -13.31642,-1.51901 -12.95636,5.44975 -22.73566,7.42945 -36.69611,7.42868 -15.7746,-8.7e-4 -27.09414,-2.21541 -39.28098,-7.68489 -6.08409,-2.73055 -8.47227,-2.79008 -10.98845,-0.27391 -2.78143,2.78144 -3.41901,7.18016 -1.56579,10.80262 1.68771,3.29894 8.19932,6.61066 18.91347,9.61914 12.14507,3.41028 29.5346,4.90362 43.23325,3.71271 z m -3.0473,-35.14975 c 2.26572,-0.25957 5.49078,-0.80522 7.16679,-1.21256 3.85889,-0.93787 10.49974,-3.98466 12.23736,-5.61442 2.80772,-2.63345 3.76317,-6.76781 2.34722,-10.15665 -2.33512,-5.58874 -7.27405,-6.66944 -15.4378,-3.378 -10.73821,4.3294 -18.91301,4.3294 -29.65122,0 -5.3329,-2.1501 -8.325,-2.37613 -11.06546,-0.83591 -4.6554,2.61648 -5.46688,10.17036 -1.51689,14.12035 3.03932,3.03932 11.51155,6.15578 19.14097,7.04089 4.89213,0.56755 12.00737,0.58294 16.77903,0.0363 z"
   id="path25" />
<path
   fill="#ffffff"
   opacity="1.000000"
   stroke="none"
   d="m 403.9581,484.05083 c -16.48216,-1.29718 -22.91066,-5.82673 -27.51861,-19.38974 -3.08267,-9.07352 -4.61603,-17.58919 -4.66015,-25.88071 -0.0284,-5.3386 0.0618,-5.97194 1.15191,-8.09029 1.64024,-3.1873 4.42921,-4.55006 11.76374,-5.74806 11.30192,-1.84603 15.33847,-2.10142 33.05972,-2.09167 18.08782,0.01 26.11368,0.53527 28.79187,1.88456 6.1846,3.11584 8.02522,10.69781 5.93828,24.46121 -3.02503,19.95005 -8.99411,29.53061 -20.41631,32.76877 -6.45315,1.82945 -19.2777,2.78109 -28.11045,2.08593 z"
   id="path26" />
<path
   fill="#ffffff"
   opacity="1.000000"
   stroke="none"
   d="m 336.25681,678.27292 c -18.1474,-1.97264 -44.49549,-17.65313 -68.709,-40.89066 -6.27367,-6.0208 -7.92493,-8.14031 -7.92493,-10.17223 0,-1.87492 2.40465,-5.31729 3.71437,-5.31729 0.51388,0 2.85334,1.16491 5.1988,2.5887 9.77291,5.93254 24.05332,12.01015 35.75664,15.21767 7.53518,2.06516 13.57485,3.21724 21.91201,4.17977 9.04917,1.04472 27.06735,0.72211 35.83397,-0.6416 20.66589,-3.21473 35.77595,-8.50568 51.73214,-18.11457 2.94998,-1.77648 5.87034,-3.22997 6.48969,-3.22997 1.96255,0 4.33006,3.99164 3.76548,6.34866 -0.34955,1.45938 -9.43625,10.62674 -16.67468,16.82271 -19.79827,16.94695 -42.49402,30.05061 -56.2825,32.49535 -5.21452,0.92456 -10.51934,1.18008 -14.81199,0.71346 z"
   id="path27" />
<path
   fill="#ffffff"
   opacity="1.000000"
   stroke="none"
   d="m 275.61111,717.93257 c -4.49385,-4.72639 -14.07698,-20.2825 -19.71382,-32.00106 -3.27099,-6.80015 -8.25721,-19.07324 -10.38843,-25.5701 -1.82897,-5.57549 -1.23605,-8.3244 3.0095,-13.95286 l 0.85191,-1.1294 4.78951,4.60547 c 17.09712,16.44018 33.48476,28.54995 51.66013,38.17465 2.56525,1.35841 4.66408,2.60669 4.66408,2.77395 0,1.82028 -25.66182,26.31797 -29.9083,28.55155 -1.81474,0.95452 -3.00819,0.60542 -4.96458,-1.4522 z"
   id="path28" />
<path
   fill="#ffffff"
   opacity="1.000000"
   stroke="none"
   d="m 304.70432,751.95198 c -0.76291,-0.10538 -4.71894,-0.90246 -8.79116,-1.77129 -44.24955,-9.44086 -84.89915,-30.09455 -119.79788,-60.86821 -6.45679,-5.69359 -6.9277,-6.84265 -3.60105,-8.78687 2.0081,-1.17361 49.0409,-19.3644 50.80909,-19.65133 2.03419,-0.33011 2.24457,0.035 5.99206,10.39842 1.68253,4.65294 4.3155,11.31113 5.85104,14.79597 8.53651,19.37328 21.5422,39.6096 32.74288,50.94658 6.01222,6.08538 10.17067,7.31274 15.02602,4.43489 1.03781,-0.61513 7.2967,-6.03512 13.90865,-12.04444 17.15965,-15.59567 15.95242,-14.86631 18.28767,-11.04878 0.87692,1.43353 2.79054,4.43121 4.25249,6.66151 l 2.65809,4.05511 -1.60689,4.16078 c -0.88379,2.28842 -2.44552,7.14624 -3.47052,10.79514 -2.27617,8.10305 -2.43459,8.27964 -7.34119,8.18341 -1.9427,-0.0381 -4.15638,-0.15551 -4.9193,-0.26089 z"
   id="path29" />
<path
   fill="#ffffff"
   opacity="1.000000"
   stroke="none"
   d="m 403.18994,719.71485 c -2.50032,-1.13073 -28.51504,-25.32834 -29.78847,-27.70776 -0.88914,-1.66137 -0.40813,-2.10829 5.4825,-5.09396 17.29946,-8.76828 35.65497,-22.04262 48.93864,-35.39147 2.93199,-2.94638 4.99421,-4.66074 5.60644,-4.66074 1.38511,0 4.66704,3.12714 5.68239,5.41439 1.07055,2.41161 1.15319,2.07102 -3.56649,14.69887 -7.43495,19.89276 -15.39509,34.94454 -25.93623,49.04266 -1.93932,2.59371 -4.10998,4.50308 -4.93782,4.34341 -0.0516,-0.01 -0.71805,-0.30038 -1.48096,-0.6454 z"
   id="path30" />
<path
   fill="#ffffff"
   opacity="1.000000"
   stroke="none"
   d="m 369.68983,751.93055 c -0.67261,-0.54464 -1.43371,-2.34226 -2.30027,-5.43289 -0.71228,-2.54041 -1.83451,-5.89171 -2.49383,-7.44734 -2.39932,-5.66101 -2.43667,-10.79024 -0.11198,-15.3778 1.46378,-2.88864 4.85959,-6.53078 6.08907,-6.53078 1.3473,0 2.19424,0.68181 14.90095,11.99569 12.71878,11.32464 15.3631,13.27067 18.63903,13.71699 4.61057,0.62817 9.6378,-3.28108 18.73131,-14.56575 12.74839,-15.82023 23.87616,-36.7772 32.02224,-60.30758 2.73729,-7.90679 2.69307,-7.83548 4.63876,-7.48088 0.90416,0.16479 9.55052,3.38264 19.21413,7.15078 36.37686,14.18445 34.90905,13.57145 34.91115,14.57991 0.002,1.10858 -5.27087,6.25704 -13.14842,12.83744 -25.81581,21.56489 -55.61362,38.03665 -87.88218,48.5799 -12.37317,4.04273 -17.12894,5.19931 -31.67261,7.70257 -9.43807,1.62449 -10.19987,1.66277 -11.53735,0.57974 z"
   id="path31" />
</svg>
